<?xml version="1.0" standalone="no"?>
<!DOCTYPE svg PUBLIC "-//W3C//DTD SVG 20010904//EN"
 "http://www.w3.org/TR/2001/REC-SVG-20010904/DTD/svg10.dtd">
<svg version="1.0" xmlns="http://www.w3.org/2000/svg"
 width="128.000000pt" height="128.000000pt" viewBox="0 0 128.000000 128.000000"
 preserveAspectRatio="xMidYMid meet">

<g transform="translate(0.000000,128.000000) scale(0.100000,-0.100000)"
fill="#000000" stroke="none">
<path d="M65 1201 c-11 -5 -29 -19 -40 -31 -19 -21 -20 -38 -23 -409 -2 -212
0 -401 3 -420 4 -18 18 -44 32 -57 25 -23 30 -24 204 -24 l179 0 0 -59 c0 -71
-12 -84 -84 -91 -38 -4 -52 -9 -54 -23 -3 -16 17 -17 355 -15 310 3 358 5 358
18 0 11 -14 16 -52 18 -66 4 -83 25 -83 99 l0 53 179 0 178 0 26 26 c15 14 29
40 32 58 3 17 5 205 3 418 l-3 388 -28 27 -27 28 -568 2 c-312 1 -576 -2 -587
-6z m1115 -451 l0 -350 -540 0 -540 0 0 350 0 350 540 0 540 0 0 -350z m-512
-422 c2 -19 -2 -28 -17 -33 -27 -8 -41 1 -41 29 0 29 9 38 35 34 13 -2 21 -12
23 -30z"/>
<path d="M180 750 l0 -260 460 0 460 0 0 260 0 260 -460 0 -460 0 0 -260z"/>
</g>
</svg>
