<?xml version="1.0" standalone="no"?>
<!DOCTYPE svg PUBLIC "-//W3C//DTD SVG 20010904//EN"
 "http://www.w3.org/TR/2001/REC-SVG-20010904/DTD/svg10.dtd">
<svg version="1.0" xmlns="http://www.w3.org/2000/svg"
 width="128.000000pt" height="128.000000pt" viewBox="0 0 128.000000 128.000000"
 preserveAspectRatio="xMidYMid meet">

<g transform="translate(0.000000,128.000000) scale(0.100000,-0.100000)"
fill="#000000" stroke="none">
<path d="M455 1107 c-116 -39 -208 -131 -240 -242 -12 -41 -22 -54 -51 -70
-111 -60 -183 -224 -154 -353 24 -114 93 -202 198 -254 47 -23 47 -23 447 -23
l400 0 49 24 c185 91 227 324 85 473 -21 23 -39 51 -39 62 -1 38 -35 120 -65
158 -40 50 -113 88 -182 95 -48 5 -62 12 -94 44 -64 64 -131 92 -229 96 -52 2
-101 -2 -125 -10z m223 -136 c40 -21 95 -82 107 -121 5 -17 9 -17 40 -4 47 19
79 18 125 -6 55 -28 74 -68 68 -145 l-5 -61 45 -25 c65 -35 85 -67 90 -144 4
-58 1 -70 -23 -106 -50 -76 -61 -78 -466 -80 -387 -1 -390 0 -458 57 -46 39
-71 96 -71 168 0 102 61 190 149 217 37 11 39 13 44 66 18 174 196 267 355
184z"/>
<path d="M498 723 c-40 -4 -46 -11 -26 -31 9 -9 8 -23 -6 -63 -48 -131 27
-256 159 -267 71 -6 136 24 173 80 34 52 42 140 17 188 -17 33 -61 80 -75 80
-5 0 -18 -16 -29 -36 l-22 -37 23 -24 c33 -35 31 -95 -5 -130 -58 -59 -158
-21 -160 60 -1 43 7 54 27 38 12 -11 16 -6 25 26 6 21 13 57 17 81 l7 42 -44
-2 c-24 -1 -61 -3 -81 -5z"/>
</g>
</svg>
