<?xml version="1.0" standalone="no"?>
<!DOCTYPE svg PUBLIC "-//W3C//DTD SVG 20010904//EN"
 "http://www.w3.org/TR/2001/REC-SVG-20010904/DTD/svg10.dtd">
<svg version="1.0" xmlns="http://www.w3.org/2000/svg"
 width="1085.000000pt" height="613.000000pt" viewBox="0 0 1085.000000 613.000000"
 preserveAspectRatio="xMidYMid meet">

<g transform="translate(0.000000,613.000000) scale(0.100000,-0.100000)"
fill="#000000" stroke="none">
<path d="M5254 5994 c-1707 -150 -1579 -133 -1688 -235 -75 -70 -116 -151
-123 -243 -3 -34 9 -217 26 -407 38 -421 37 -386 9 -365 -43 30 -133 74 -188
90 -65 19 -209 22 -272 6 -75 -20 -2681 -971 -2733 -998 -27 -13 -82 -57 -121
-96 -84 -84 -127 -165 -151 -281 -31 -153 -50 -93 492 -1580 268 -737 501
-1364 517 -1393 38 -67 118 -150 182 -187 117 -68 264 -98 378 -77 81 16 2723
978 2786 1015 76 45 174 152 212 232 18 37 38 104 46 148 19 111 7 190 -56
367 -28 78 -50 144 -48 145 6 6 2237 199 2241 195 3 -3 -44 -279 -104 -615
-67 -377 -108 -637 -109 -680 -1 -230 149 -444 362 -514 35 -11 527 -101 1093
-200 1594 -278 1788 -311 1836 -311 206 0 426 168 493 375 26 83 506 2830 506
2898 0 137 -58 274 -161 378 -79 80 -174 130 -294 153 -44 9 -683 122 -1420
252 -1239 218 -1346 236 -1425 231 -48 -3 -111 -14 -144 -26 -33 -12 -60 -20
-61 -19 -1 2 -32 354 -69 783 -72 833 -73 839 -135 928 -69 101 -206 170 -329
166 -20 -1 -717 -61 -1548 -135z m166 -804 c261 -42 442 -275 457 -590 7 -135
-8 -210 -61 -306 l-34 -61 36 -17 c136 -64 258 -225 297 -388 20 -84 19 -253
-1 -332 -57 -222 -228 -390 -459 -451 -52 -14 -381 -49 -660 -70 l-90 -7 -96
1088 c-52 599 -94 1091 -93 1093 4 5 492 48 569 50 39 0 99 -4 135 -9z m-2208
-662 c55 -16 121 -78 145 -135 11 -26 68 -181 126 -343 l106 -295 56 -650 c30
-357 60 -671 65 -698 15 -75 54 -139 119 -199 83 -77 147 -101 270 -102 l94
-1 64 -180 c58 -160 64 -186 60 -233 -7 -66 -46 -134 -95 -167 -20 -13 -632
-240 -1358 -504 -1074 -391 -1331 -481 -1371 -481 -67 0 -149 42 -185 95 -16
23 -228 592 -508 1361 -391 1077 -480 1330 -480 1370 1 82 49 162 120 199 72
37 2667 975 2699 975 18 0 51 -5 73 -12z m5756 -784 c1518 -267 1449 -252
1508 -330 15 -19 33 -58 40 -85 13 -49 5 -98 -232 -1441 -135 -765 -251 -1405
-258 -1422 -35 -83 -121 -139 -210 -138 -45 0 -2645 454 -2768 483 -89 21
-166 100 -182 188 -4 24 31 248 110 695 64 364 118 663 120 665 2 2 24 7 50
12 119 22 225 104 279 213 44 90 43 152 -10 749 l-46 528 25 34 c37 49 104 86
169 94 4 1 637 -110 1405 -245z"/>
<path d="M5100 4881 c-41 -4 -55 -10 -53 -21 1 -8 12 -140 24 -293 13 -152 26
-282 29 -288 5 -7 50 -6 149 4 122 13 148 19 194 45 106 60 149 159 129 300
-18 130 -75 214 -169 248 -39 13 -197 16 -303 5z"/>
<path d="M5223 3978 l-101 -10 4 -32 c2 -17 16 -166 30 -331 14 -165 27 -302
30 -304 8 -8 307 20 372 35 85 19 130 44 181 99 67 73 86 124 86 230 0 78 -4
98 -28 151 -34 74 -75 115 -142 146 -43 19 -69 22 -190 24 -77 1 -186 -2 -242
-8z"/>
<path d="M1939 3568 l-87 -32 -6 -160 c-12 -311 -58 -2187 -54 -2192 4 -3 184
59 281 97 l27 11 1 257 c1 141 4 307 8 370 l6 113 343 125 344 125 21 -21 c12
-11 121 -135 242 -275 121 -140 224 -255 230 -255 18 -2 295 102 295 110 0 13
-1539 1754 -1553 1756 -6 1 -51 -12 -98 -29z m435 -796 c130 -146 212 -244
204 -247 -138 -50 -428 -155 -442 -161 -18 -7 -19 -1 -12 207 9 315 18 461 26
452 4 -4 105 -117 224 -251z"/>
<path d="M8700 3205 c-415 -89 -737 -439 -825 -898 -21 -108 -21 -317 0 -425
67 -351 276 -632 568 -767 106 -49 178 -66 308 -72 189 -9 346 33 531 144 51
30 95 57 97 59 1 1 -32 53 -75 115 -44 62 -82 117 -85 122 -4 5 -28 -5 -53
-23 -205 -140 -467 -160 -651 -48 -162 98 -282 258 -341 453 -24 79 -27 107
-27 225 0 158 19 244 83 379 123 256 336 423 578 453 72 9 101 8 164 -5 147
-30 284 -119 378 -246 31 -42 57 -68 64 -64 6 4 59 40 118 82 l107 74 -17 30
c-40 67 -145 186 -213 240 -82 66 -191 124 -294 157 -89 29 -314 37 -415 15z"/>
</g>
</svg>
