<?xml version="1.0" standalone="no"?>
<!DOCTYPE svg PUBLIC "-//W3C//DTD SVG 20010904//EN"
 "http://www.w3.org/TR/2001/REC-SVG-20010904/DTD/svg10.dtd">
<svg version="1.0" xmlns="http://www.w3.org/2000/svg"
 width="128.000000pt" height="128.000000pt" viewBox="0 0 128.000000 128.000000"
 preserveAspectRatio="xMidYMid meet">

<g transform="translate(0.000000,128.000000) scale(0.100000,-0.100000)"
fill="#000000" stroke="none">
<path d="M16 1204 c-14 -14 -16 -67 -16 -435 0 -271 4 -427 10 -440 10 -18 28
-19 630 -19 602 0 620 1 630 19 6 13 10 169 10 440 0 368 -2 421 -16 435 -14
14 -84 16 -624 16 -540 0 -610 -2 -624 -16z m1174 -389 l0 -305 -550 0 -550 0
0 305 0 305 550 0 550 0 0 -305z"/>
<path d="M490 175 l0 -55 -64 0 c-58 0 -64 -2 -70 -22 -3 -13 -6 -26 -6 -30 0
-5 131 -8 291 -8 l291 0 -6 22 c-3 13 -6 26 -6 30 0 4 -28 8 -62 10 l-63 3 -3
53 -3 52 -150 0 -149 0 0 -55z"/>
</g>
</svg>
