<?xml version="1.0" standalone="no"?>
<!DOCTYPE svg PUBLIC "-//W3C//DTD SVG 20010904//EN"
 "http://www.w3.org/TR/2001/REC-SVG-20010904/DTD/svg10.dtd">
<svg version="1.0" xmlns="http://www.w3.org/2000/svg"
 width="128.000000pt" height="128.000000pt" viewBox="0 0 128.000000 128.000000"
 preserveAspectRatio="xMidYMid meet">

<g transform="translate(0.000000,128.000000) scale(0.100000,-0.100000)"
fill="#000000" stroke="none">
<path d="M5 1208 c-3 -7 -4 -222 -3 -478 l3 -465 635 0 635 0 0 475 0 475
-633 3 c-501 2 -634 0 -637 -10z m1135 -468 l0 -350 -500 0 -500 0 0 350 0
350 500 0 500 0 0 -350z"/>
<path d="M540 740 c0 -88 3 -159 8 -157 95 52 262 151 262 156 0 4 -46 33
-102 66 -57 32 -118 68 -135 78 l-33 19 0 -162z"/>
<path d="M290 149 c0 -12 15 -36 34 -55 l34 -34 282 0 282 0 34 34 c19 19 34
43 34 55 0 21 -1 21 -350 21 -349 0 -350 0 -350 -21z"/>
</g>
</svg>
